Coordinates
version=1
nRows=10
nColumns=63
inDegrees=yes

Units are S.I. units (second, meters, Newtons, ...)
If the header above contains a line with 'inDegrees', this indicates whether rotational values are in degrees (yes) or radians (no).

endheader
time	pelvis_tilt	pelvis_list	pelvis_rotation	pelvis_tx	pelvis_ty	pelvis_tz	hip_flexion_r	hip_adduction_r	hip_rotation_r	knee_angle_r	knee_angle_r_beta	ankle_angle_r	subtalar_angle_r	mtp_angle_r	hip_flexion_l	hip_adduction_l	hip_rotation_l	knee_angle_l	knee_angle_l_beta	ankle_angle_l	subtalar_angle_l	mtp_angle_l	L5_S1_Flex_Ext	L5_S1_Lat_Bending	L5_S1_axial_rotation	L4_L5_Flex_Ext	L4_L5_Lat_Bending	L4_L5_axial_rotation	L3_L4_Flex_Ext	L3_L4_Lat_Bending	L3_L4_axial_rotation	L2_L3_Flex_Ext	L2_L3_Lat_Bending	L2_L3_axial_rotation	L1_L2_Flex_Ext	L1_L2_Lat_Bending	L1_L2_axial_rotation	L1_T12_Flex_Ext	L1_T12_Lat_Bending	L1_T12_axial_rotation	Abs_r3	Abs_r2	Abs_r1	Abs_t1	Abs_t2	neck_flexion	neck_bending	neck_rotation	arm_flex_r	arm_add_r	arm_rot_r	elbow_flex_r	pro_sup_r	wrist_flex_r	wrist_dev_r	arm_flex_l	arm_add_l	arm_rot_l	elbow_flex_l	pro_sup_l	wrist_flex_l	wrist_dev_l
      0.00000000	     66.49669354	    -16.51649530	    154.03761857	     -0.13187777	      1.04878973	     -0.04703781	      5.40711142	    -21.54447065	      9.69178585	     22.66574338	      0.39559185	     20.25958795	      6.42799458	     22.06641948	     12.91620961	      2.03177933	    -37.23401074	     13.81687166	      0.24114990	     17.44925455	     10.09120831	     27.66023931	     39.50685987	    -14.63377150	    -14.98039177	     73.36818946	    -19.46291610	    -15.91666626	     64.90582008	    -35.58055203	    -15.91666626	     45.15239014	    -35.58055203	    -13.10784280	     36.68607007	    -29.84118684	    -12.17156832	     22.57421973	    -22.66771205	    -11.23529383	    282.19354936	   -165.54014996	    -83.31644493	      0.00000000	      0.00000000	     13.27056040	     -8.22143860	    -21.30254353	   -151.98639756	   -136.60440281	    186.24914388	    111.26239373	     51.34553729	    -12.32642000	      7.01513202	     31.41664875	    -21.18413942	     27.05816180	    109.93062023	     64.80253180	    -14.52477250	     11.76771238
      0.08000000	     66.35518628	    -15.79577141	    154.05006862	     -0.18225959	      1.06297684	     -0.02957240	      3.87375857	    -23.25922617	     13.89152468	     26.74954680	      0.46686766	     19.40888333	     -0.95611326	     22.08832891	     13.99759368	      3.36736281	    -34.46029622	     17.57273804	      0.30670214	     13.39397832	      9.80983443	     27.58770051	     39.59582927	    -14.61416339	    -14.98004721	     73.53341454	    -19.43683731	    -15.91630016	     65.05198791	    -35.53287687	    -15.91630016	     45.25407327	    -35.53287687	    -13.10754131	     36.76868706	    -29.80120199	    -12.17128836	     22.62505684	    -22.63733910	    -11.23503541	    282.82904889	   -165.31833913	    -83.31452859	      0.00000000	      0.00000000	     15.18178483	     -9.92590648	    -21.77680987	   -152.23371503	   -136.71483007	    185.36827688	    110.97866985	     51.53813197	    -11.74572504	      5.53540086	     30.19132015	    -21.51825323	     26.21758550	    110.39504025	     64.51886286	    -14.65635477	     10.82966892
      0.16000000	     63.71631399	    -16.00307455	    153.20992472	     -0.21278501	      1.04570137	     -0.01011644	      5.50045712	    -24.92458125	     16.76026097	     36.33293111	      0.63412927	     13.93366526	    -13.60874362	     24.10327532	     11.34914545	      7.09350130	    -34.87981066	     20.54605036	      0.35859623	     14.15248687	     12.33568271	     27.59115176	     39.71863534	    -14.50798231	    -14.98203641	     73.76147769	    -19.29561648	    -15.91841368	     65.25374600	    -35.27470820	    -15.91841368	     45.39442833	    -35.27470820	    -13.10928186	     36.88272477	    -29.58467753	    -12.17290458	     22.69522823	    -22.47286460	    -11.23652731	    283.70624035	   -164.11719752	    -83.32559189	      0.00000000	      0.00000000	     14.54542801	    -10.42861923	    -23.44183719	   -154.82034120	   -135.03675184	    181.87743373	    114.04495000	     51.83636460	    -12.91175163	      5.02587990	     31.91252951	    -20.26277073	     28.08460756	    110.41470044	     64.35091046	    -15.01419781	     14.14050896
      0.24000000	     63.55427954	    -15.43727785	    154.47963765	     -0.24065907	      1.03277354	      0.01200403	     11.91797791	    -24.41235707	     22.23240603	     50.20815610	      0.87629764	      3.39184566	    -16.86663676	     26.83727220	      8.98615002	     10.87889437	    -35.14956664	     19.32836137	      0.33734354	     11.53362183	     15.50936090	     27.92558175	     40.32080011	    -14.04754374	    -14.98247398	     74.87975788	    -18.68323318	    -15.91887861	     66.24304249	    -34.15519786	    -15.91887861	     46.08264244	    -34.15519786	    -13.10966474	     37.44189498	    -28.64575120	    -12.17326011	     23.03930518	    -21.75964526	    -11.23685549	    288.00744307	   -158.90862434	    -83.32802555	      0.00000000	      0.00000000	     14.06324500	     -9.74760958	    -24.57711503	   -160.03065422	   -136.62867952	    178.90907492	    116.11143621	     55.60807335	    -12.13635494	      4.02868910	     33.54874754	    -21.83422863	     32.17831110	    109.91206808	     57.20467418	    -16.21033935	     14.03087805
      0.32000000	     63.46354887	    -15.47315070	    153.98082092	     -0.30236759	      0.98418819	      0.02656155	     16.75197681	    -26.20904303	     18.45065098	     52.35129355	      0.91370244	      2.04083638	    -19.53858748	     27.98976722	      5.10845683	     14.06812314	    -33.86004220	     18.56699083	      0.32405512	     14.19456359	     13.90134621	     27.75668576	     40.92769576	    -13.58677052	    -14.98252538	     76.00682380	    -18.07040480	    -15.91893321	     67.24011137	    -33.03487385	    -15.91893321	     46.77626349	    -33.03487385	    -13.10970971	     38.00545828	    -27.70614245	    -12.17330187	     23.38608536	    -21.04590754	    -11.23689403	    292.34243805	   -153.69626551	    -83.32831139	      0.00000000	      0.00000000	     15.14948167	    -10.28740572	    -24.29796237	   -161.60530675	   -137.16748885	    179.47852805	    116.74644761	     55.42460839	    -10.51758882	      5.75715118	     34.23834678	    -22.39475692	     32.07522483	    108.17733190	     56.86805971	    -16.06805219	     11.74254311
      0.40000000	     64.57273605	    -15.56222770	    154.13524230	     -0.34159968	      0.95182121	      0.02954341	     18.93881125	    -23.92439953	     16.17583652	     39.55462271	      0.69035840	      8.96165277	    -18.78695813	     27.46062159	      3.38723829	     14.41076592	    -32.23562414	     17.75548540	      0.30989168	     16.86537588	     13.89704218	     27.66226906	     41.43744205	    -13.08226028	    -14.98221918	     76.95347363	    -17.39940617	    -15.91860787	     68.07757354	    -31.80820764	    -15.91860787	     47.35885252	    -31.80820764	    -13.10944178	     38.47880868	    -26.67734516	    -12.17305308	     23.67735439	    -20.26442117	    -11.23666438	    295.98350480	   -147.98914472	    -83.32660839	      0.00000000	      0.00000000	     14.93004995	     -9.26388592	    -23.08642133	   -161.84951287	   -137.53500942	    180.47568749	    115.62443224	     53.59868911	     -9.96338655	      7.77870097	     30.74873480	    -25.32892800	     31.09580808	    110.60934916	     54.77952522	    -16.55766485	     12.38522844
      0.48000000	     65.51481576	    -15.65194411	    157.26589407	     -0.41434548	      0.97520657	      0.02972431	     19.45187422	    -22.97889544	     14.84209432	     27.26097531	      0.47579378	     18.04505687	     -3.95255031	     25.71032962	      1.71462719	     14.55133812	    -29.86986246	     18.44698878	      0.32196069	     18.85769913	     12.25698160	     27.47779940	     41.92273510	    -12.52538971	    -14.98176713	     77.85471135	    -16.65876831	    -15.91812757	     68.87486149	    -30.45423253	    -15.91812757	     47.91349394	    -30.45423253	    -13.10904623	     38.92945181	    -25.54177469	    -12.17268579	     23.95465083	    -19.40182866	    -11.23632534	    299.44990453	   -141.68971345	    -83.32409422	      0.00000000	      0.00000000	     12.26623291	     -6.90918938	    -23.14955973	   -166.26627132	   -138.14811578	    176.64844534	    115.89283851	     54.92325004	     -9.76312372	      8.10542958	     33.69796689	    -23.77784918	     34.36334384	    109.06829209	     55.84360915	    -16.58453519	     13.71844565
      0.56000000	     65.43646062	    -16.60115812	    159.59664686	     -0.45891556	      1.01339286	      0.01829002	     19.36019720	    -22.21106772	     12.12217826	     21.71054679	      0.37892052	     19.60885112	      1.61603147	     25.27477360	      0.20098879	     14.79845763	    -28.52452131	     17.56410272	      0.30655142	     19.34978674	     12.65385316	     27.44685837	     42.02689330	    -12.35779353	    -14.98193572	     78.04814355	    -16.43586540	    -15.91830670	     69.04598301	    -30.04673919	    -15.91830670	     48.03253636	    -30.04673919	    -13.10919375	     39.02617312	    -25.20001257	    -12.17282277	     24.01416683	    -19.14222218	    -11.23645179	    300.19389618	   -139.79383198	    -83.32503187	      0.00000000	      0.00000000	      8.49102841	     -6.67781237	    -24.95650133	   -171.11977146	   -138.50463619	    171.27953342	    118.48348884	     54.70446618	     -9.41143660	      7.90069251	     33.29544591	    -22.62052806	     36.73766857	    111.06645955	     55.40143165	    -15.80410083	     17.19235557
      0.64000000	     66.06347900	    -18.07837908	    161.82686571	     -0.50360015	      1.01522720	     -0.00161221	     18.59782679	    -22.78583706	     12.49764942	     21.12567936	      0.36871266	     18.94264931	     -2.32157910	     25.68087387	     -0.45131903	     15.00361451	    -26.94489838	     16.44823910	      0.28707593	     19.43691473	     14.82491611	     27.51898641	     42.33213270	    -12.15791215	    -14.98227936	     78.61500363	    -16.17002316	    -15.91867182	     69.54746081	    -29.56074761	    -15.91867182	     48.38139446	    -29.56074761	    -13.10949444	     39.30961842	    -24.79241446	    -12.17310198	     24.18858062	    -18.83260592	    -11.23670952	    302.37419063	   -137.53273384	    -83.32694313	      0.00000000	      0.00000000	      7.78054889	     -7.15531654	    -24.75344241	   -171.63433437	   -138.31050725	    172.04728925	    120.54389866	     52.61617484	    -10.86203481	      8.57127848	     31.18419859	    -24.29217868	     35.97353101	    114.27034810	     54.29328669	    -16.00533533	     17.51130142
      0.72000000	     68.77199493	    -18.05361761	    164.92175171	     -0.52672799	      0.99290690	     -0.02075562	     16.59340343	    -22.33267253	     10.42473941	     21.34910003	      0.37261209	     19.19742671	     -0.88447257	     24.83742672	     -0.94887975	     13.96100087	    -26.99750873	     17.04698351	      0.29752599	     16.97842073	     13.50879612	     27.52596687	     42.53189439	    -12.04582303	    -14.98130591	     78.98598107	    -16.02094463	    -15.91763753	     69.87564930	    -29.28821412	    -15.91763753	     48.60970210	    -29.28821412	    -13.10864267	     39.49511713	    -24.56384233	    -12.17231105	     24.30272446	    -18.65897988	    -11.23597943	    303.80106845	   -136.26475929	    -83.32152909	      0.00000000	      0.00000000	      9.96526298	     -6.44129739	    -23.83009816	   -173.80780427	   -138.83093334	    170.99682085	    120.41934408	     53.21703986	     -9.80068710	      7.94348237	     31.44990887	    -25.12943322	     35.23586127	    112.06936054	     54.39991202	    -13.87168200	     18.04537256
